<?xml version="1.0" encoding="UTF-8"?>
<svg id="Layer_1" xmlns="http://www.w3.org/2000/svg" version="1.1" viewBox="0 0 1000 1000">
  <!-- Generator: Adobe Illustrator 29.0.0, SVG Export Plug-In . SVG Version: 2.1.0 Build 186)  -->
  <defs>
    <style>
      .st0 {
        fill: #3496d3;
      }
    </style>
  </defs>
  <g id="Center_Cirkle">
    <path class="st0" d="M461.5,538h0Z"/>
    <polygon class="st0" points="461.6 538 461.5 538 461.5 537.9 461.6 538"/>
    <polygon class="st0" points="461.6 538.1 461.6 538.1 461.5 538.1 461.6 538.1"/>
  </g>
  <g id="Cirkel5">
    <path class="st0" d="M911.8,356.2c-35.4,0-64.8,25.5-70.9,59.1l-274.8,67c-7.9-14.9-19-27.9-32.2-38.1l91.2-211.8c1.9.1,3.9.2,5.8.2,49.1,0,89-39.8,89-89s-39.9-89-89-89-89,39.9-89,89,11.2,49.6,29.1,65.9l-91,211.5c-6-.9-12.1-1.4-18.4-1.4-22.6,0-43.7,6.3-61.7,17.3l-159.2-155.1c2.8-7.7,4.3-16,4.3-24.7,0-39.6-32.2-71.8-71.8-71.8s-71.8,32.2-71.8,71.8,32.1,71.8,71.8,71.8,18.3-1.8,26.5-5.1l159.3,155.2c-10,17.4-15.8,37.5-15.8,59s3.6,33.3,10.1,48l-196.1,154.5c-13.3-7.9-28.8-12.5-45.4-12.5-49.1,0-89,39.9-89,89s39.9,89,89,89,89-39.8,89-89-2-21.8-5.8-31.6l194.7-153.4c19.9,15.3,44.8,24.3,71.9,24.3s6.7,0,9.9-.4l62.2,179c-13.5,12.8-21.8,31-21.8,51,0,39,31.6,70.6,70.6,70.6s70.6-31.6,70.6-70.6-28-66.9-63.9-70.3l-62.2-179c31.6-21,52.6-56.7,53-97.4l274.8-67c13.2,17,33.8,28,57,28,39.8,0,72.1-32.3,72.1-72.1s-32.3-71.9-72.1-71.9ZM461.5,538.1h0v-.2.2h0Z"/>
  </g>
  <g id="Arms">
    <polygon class="st0" points="461.6 538 461.5 538 461.5 537.9 461.6 538"/>
    <polygon class="st0" points="461.6 538.1 461.6 538.1 461.5 538.1 461.6 538.1"/>
    <path class="st0" d="M461.5,538h0Z"/>
    <polygon class="st0" points="461.6 538 461.5 538 461.5 537.9 461.6 538"/>
    <path class="st0" d="M461.5,538h0Z"/>
    <polygon class="st0" points="461.6 538 461.5 538 461.5 537.9 461.6 538"/>
    <polygon class="st0" points="461.6 538.1 461.6 538.1 461.5 538.1 461.6 538.1"/>
    <path class="st0" d="M461.5,538h0Z"/>
    <polygon class="st0" points="461.6 538 461.5 538 461.5 537.9 461.6 538"/>
    <polygon class="st0" points="461.6 538.1 461.6 538.1 461.5 538.1 461.6 538.1"/>
    <path class="st0" d="M461.5,538h0Z"/>
    <polygon class="st0" points="461.6 538.1 461.6 538.1 461.5 538.1 461.6 538.1"/>
  </g>
</svg>