<?xml version="1.0" encoding="UTF-8"?>
<svg id="Layer_1" data-name="Layer 1" xmlns="http://www.w3.org/2000/svg" viewBox="0 0 1183.5 417.4">
  <defs>
    <style>
      .cls-1 {
        fill: #1e90ff;
      }

      .cls-2 {
        fill: #212121;
      }
    </style>
  </defs>
  <g>
    <path class="cls-1" d="M577.57,400.75c-4.09,0-8.17-1.66-11.13-4.94-21.82-24.12-41.78-49.99-59.32-76.86-16.87-25.85-27.69-46.71-32.15-61.99-3.87-13.26-14.17-48.49-2.81-89.23,16.38-58.74,63.91-84.23,78.09-90.64,23.01-10.4,45.13-11.25,55.76-11.66,5.42-.21,25.08-.34,50.42,6.78l.12.03c10.47,2.94,21.08,5.92,31.25,9.92,14.94-12.48,29.65-19.85,37.68-23.87l1.23-.62c39.14-19.7,74.55-17.36,93.58-16.1,44.19,2.92,78.42,19.13,99.35,32.22,7.03,4.39,9.16,13.64,4.77,20.67-4.39,7.02-13.64,9.16-20.67,4.77-18.02-11.26-47.47-25.21-85.43-27.72-17.31-1.15-46.28-3.06-78.11,12.97l-1.28.64c-5.08,2.55-13.43,6.73-22.55,13.07,5.79,4.66,11.14,10.19,15.89,16.9,18.96,26.77,16.81,55.75,14.72,83.78-1.55,20.8-3.15,42.31-21.3,55.14-15.33,10.84-37.99,11.56-55.11,1.77-33.55-19.2-37.42-76.87-21.78-119.29,4.3-11.66,10.01-21.75,16.42-30.47-5.36-1.69-10.98-3.27-16.77-4.89l-.12-.03c-21.66-6.08-38.08-5.8-41.16-5.68-9.4.36-26.89,1.03-44.55,9.02-7.96,3.6-48.34,23.96-61.55,71.36-9.06,32.5-.81,60.72,2.71,72.77,4.53,15.51,17.99,37.93,28.48,54.01,16.69,25.57,35.68,50.17,56.44,73.14,5.56,6.14,5.08,15.63-1.06,21.19-2.87,2.6-6.47,3.88-10.06,3.88ZM693.55,118.64c-6.63,7.82-12.53,17.15-16.61,28.22-11.99,32.5-7.76,73.55,8.53,82.87,6.87,3.93,17.14,3.83,22.89-.23,6.16-4.35,7.39-15.32,8.7-32.86,1.92-25.84,3.44-46.25-9.28-64.22-3.98-5.62-8.78-10.09-14.23-13.78Z"/>
    <path class="cls-1" d="M847.98,136.43c-7.17,0-13.65-.79-19.11-1.84-8.13-1.57-13.46-9.43-11.89-17.56,1.56-8.14,9.42-13.46,17.56-11.89,10.54,2.03,26.49,2.67,42.66-5.82l.09-.05c7.24-3.8,17.16-9.01,20.5-17.9,5.06-13.49-5.77-36.78-25.75-55.39-6.06-5.65-6.4-15.14-.75-21.2s15.14-6.4,21.2-.75c29.88,27.83,42.99,62.33,33.39,87.89-7.35,19.59-25.1,28.91-34.64,33.92l-.09.05c-15.3,8.03-30.33,10.55-43.16,10.55Z"/>
  </g>
  <path class="cls-2" d="M841.92,416.4c-15.79,0-29.35-2.12-40.69-6.38-11.34-4.25-20.45-9.94-27.33-17.06-6.88-7.13-11.66-15.02-14.33-23.68l39.59-9.59c1.78,3.64,4.37,7.27,7.77,10.87,3.4,3.6,7.99,6.6,13.78,8.99,5.79,2.39,13.1,3.58,21.92,3.58,12.47,0,22.79-3.02,30.97-9.05,8.18-6.03,12.27-15.93,12.27-29.69v-35.34h-2.19c-2.27,4.54-5.57,9.19-9.9,13.97-4.33,4.78-10.04,8.79-17.12,12.02-7.09,3.24-15.97,4.86-26.66,4.86-14.33,0-27.31-3.38-38.92-10.14-11.62-6.76-20.85-16.88-27.69-30.36-6.84-13.48-10.26-30.38-10.26-50.71s3.42-37.79,10.26-51.92c6.84-14.13,16.09-24.86,27.75-32.18,11.66-7.33,24.65-10.99,38.98-10.99,10.93,0,19.94,1.84,27.02,5.53,7.08,3.69,12.73,8.1,16.94,13.24,4.21,5.14,7.41,9.98,9.59,14.51h2.43v-30.85h43.36v189.58c0,15.95-3.81,29.15-11.42,39.59-7.61,10.44-18.02,18.26-31.21,23.44-13.2,5.18-28.18,7.77-44.94,7.77ZM842.28,305.4c9.31,0,17.25-2.27,23.8-6.8,6.56-4.53,11.54-11.05,14.94-19.55,3.4-8.5,5.1-18.7,5.1-30.61s-1.68-22.02-5.04-30.85c-3.36-8.82-8.3-15.69-14.82-20.59-6.52-4.9-14.51-7.35-23.99-7.35s-17.97,2.55-24.53,7.65c-6.56,5.1-11.5,12.08-14.82,20.95-3.32,8.87-4.98,18.93-4.98,30.18s1.68,21.4,5.04,29.94c3.36,8.54,8.34,15.18,14.94,19.92,6.6,4.74,14.71,7.11,24.35,7.11Z"/>
  <path class="cls-2" d="M43.96,234.26v109.3H0v-186.55h42.02v31.7h2.19c4.29-10.44,11.15-18.74,20.59-24.9,9.43-6.15,21.11-9.23,35.04-9.23,12.87,0,24.11,2.75,33.7,8.26,9.59,5.51,17.04,13.48,22.35,23.93,5.3,10.44,7.91,23.12,7.83,38.01v118.78h-43.96v-111.98c0-12.47-3.22-22.23-9.65-29.27-6.44-7.04-15.32-10.57-26.66-10.57-7.69,0-14.51,1.68-20.46,5.04-5.95,3.36-10.61,8.2-13.97,14.51-3.36,6.32-5.04,13.97-5.04,22.95Z"/>
  <path class="cls-2" d="M268.11,346.21c-18.7,0-34.84-3.91-48.4-11.72-13.56-7.81-23.99-18.9-31.27-33.28-7.29-14.37-10.93-31.31-10.93-50.83s3.66-36.05,10.99-50.58c7.33-14.53,17.59-25.87,30.79-34.01,13.2-8.14,28.7-12.21,46.52-12.21,11.5,0,22.37,1.84,32.61,5.53,10.24,3.69,19.31,9.37,27.2,17.06,7.89,7.69,14.11,17.47,18.64,29.33,4.53,11.86,6.8,25.97,6.8,42.33v13.48h-152.9v-29.63h110.76c-.08-8.42-1.9-15.93-5.47-22.53-3.56-6.6-8.52-11.8-14.88-15.61-6.36-3.81-13.74-5.71-22.16-5.71-8.99,0-16.88,2.17-23.68,6.5-6.8,4.33-12.08,10-15.85,17-3.77,7-5.69,14.68-5.77,23.01v25.87c0,10.85,1.98,20.14,5.95,27.87,3.97,7.73,9.51,13.64,16.64,17.73,7.12,4.09,15.46,6.13,25.02,6.13,6.4,0,12.19-.91,17.37-2.73,5.18-1.82,9.67-4.51,13.48-8.08,3.8-3.56,6.68-7.97,8.62-13.24l41.05,4.61c-2.59,10.85-7.51,20.3-14.76,28.36-7.25,8.06-16.5,14.29-27.75,18.7-11.25,4.41-24.13,6.62-38.62,6.62Z"/>
  <path class="cls-2" d="M382.53,157.02l37.65,68.86,38.26-68.86h46.52l-56.23,93.27,57.2,93.27h-46.27l-39.47-67.16-39.11,67.16h-46.64l56.84-93.27-55.38-93.27h46.64Z"/>
  <path class="cls-2" d="M628.11,157.02v34.01h-107.24v-34.01h107.24ZM547.34,112.32h43.96v175.13c0,5.91.91,10.43,2.73,13.54,1.82,3.12,4.23,5.24,7.23,6.38,2.99,1.13,6.31,1.7,9.96,1.7,2.75,0,5.28-.2,7.59-.61,2.31-.4,4.07-.77,5.28-1.09l7.41,34.37c-2.35.81-5.69,1.7-10.02,2.67-4.33.97-9.62,1.54-15.85,1.7-11.01.32-20.93-1.36-29.75-5.04-8.83-3.68-15.81-9.41-20.95-17.19-5.14-7.77-7.67-17.49-7.59-29.15V112.32Z"/>
  <path class="cls-2" d="M972.77,130.54c-6.96,0-12.96-2.33-17.97-6.98-5.02-4.66-7.53-10.26-7.53-16.82s2.51-12.29,7.53-16.94c5.02-4.65,11.01-6.98,17.97-6.98s13.06,2.33,18.04,6.98c4.98,4.66,7.47,10.3,7.47,16.94s-2.49,12.17-7.47,16.82c-4.98,4.66-10.99,6.98-18.04,6.98ZM950.66,343.56v-186.55h43.96v186.55h-43.96Z"/>
  <path class="cls-2" d="M1095.93,417.4c-15.79,0-29.35-2.12-40.69-6.38-11.34-4.25-20.45-9.94-27.33-17.06-6.88-7.13-11.66-15.02-14.33-23.68l39.59-9.59c1.78,3.64,4.37,7.27,7.77,10.87,3.4,3.6,7.99,6.6,13.78,8.99,5.79,2.39,13.1,3.58,21.92,3.58,12.47,0,22.79-3.02,30.97-9.05,8.18-6.03,12.27-15.93,12.27-29.69v-35.34h-2.19c-2.27,4.54-5.57,9.19-9.9,13.97-4.33,4.78-10.04,8.79-17.12,12.02-7.09,3.24-15.97,4.86-26.66,4.86-14.33,0-27.31-3.38-38.92-10.14-11.62-6.76-20.85-16.88-27.69-30.36-6.84-13.48-10.26-30.38-10.26-50.71s3.42-37.79,10.26-51.92c6.84-14.13,16.09-24.86,27.75-32.18,11.66-7.33,24.65-10.99,38.98-10.99,10.93,0,19.94,1.84,27.02,5.53,7.08,3.69,12.73,8.1,16.94,13.24,4.21,5.14,7.41,9.98,9.59,14.51h2.43v-30.85h43.36v189.58c0,15.95-3.81,29.15-11.42,39.59-7.61,10.44-18.02,18.26-31.21,23.44-13.2,5.18-28.18,7.77-44.94,7.77ZM1096.3,306.4c9.31,0,17.25-2.27,23.8-6.8,6.56-4.53,11.54-11.05,14.94-19.55,3.4-8.5,5.1-18.7,5.1-30.61s-1.68-22.02-5.04-30.85c-3.36-8.82-8.3-15.69-14.82-20.59-6.52-4.9-14.51-7.35-23.99-7.35s-17.97,2.55-24.53,7.65c-6.56,5.1-11.5,12.08-14.82,20.95-3.32,8.87-4.98,18.93-4.98,30.18s1.68,21.4,5.04,29.94c3.36,8.54,8.34,15.18,14.94,19.92,6.6,4.74,14.71,7.11,24.35,7.11Z"/>
  <ellipse class="cls-1" cx="973.02" cy="106.75" rx="26" ry="24"/>
</svg>